<svg width="3" height="27" viewBox="0 0 3 27" fill="none" xmlns="http://www.w3.org/2000/svg">
<path d="M2.09233 25.5121C2.09233 25.0575 1.71236 24.6634 1.24006 24.6598C0.774858 24.6634 0.394886 25.0575 0.394886 25.5121C0.394886 25.9808 0.774858 26.3679 1.24006 26.3643C1.71236 26.3679 2.09233 25.9808 2.09233 25.5121ZM2.09233 22.5336C2.09233 22.079 1.71236 21.6848 1.24006 21.6813C0.774858 21.6848 0.394886 22.079 0.394886 22.5336C0.394886 23.0023 0.774858 23.3894 1.24006 23.3858C1.71236 23.3894 2.09233 23.0023 2.09233 22.5336ZM2.09233 19.555C2.09233 19.1005 1.71236 18.7063 1.24006 18.7028C0.774858 18.7063 0.394886 19.1005 0.394886 19.555C0.394886 20.0238 0.774858 20.4109 1.24006 20.4073C1.71236 20.4109 2.09233 20.0238 2.09233 19.555ZM2.09233 16.5765C2.09233 16.122 1.71236 15.7278 1.24006 15.7243C0.774858 15.7278 0.394886 16.122 0.394886 16.5765C0.394886 17.0453 0.774858 17.4324 1.24006 17.4288C1.71236 17.4324 2.09233 17.0453 2.09233 16.5765ZM2.09233 13.598C2.09233 13.1435 1.71236 12.7493 1.24006 12.7457C0.774858 12.7493 0.394886 13.1435 0.394886 13.598C0.394886 14.0668 0.774858 14.4538 1.24006 14.4503C1.71236 14.4538 2.09233 14.0668 2.09233 13.598ZM2.09233 10.6195C2.09233 10.165 1.71236 9.77077 1.24006 9.76722C0.774858 9.77077 0.394886 10.165 0.394886 10.6195C0.394886 11.0882 0.774858 11.4753 1.24006 11.4718C1.71236 11.4753 2.09233 11.0882 2.09233 10.6195ZM2.09233 7.64098C2.09233 7.18643 1.71236 6.79226 1.24006 6.78871C0.774858 6.79226 0.394886 7.18643 0.394886 7.64098C0.394886 8.10973 0.774858 8.4968 1.24006 8.49325C1.71236 8.4968 2.09233 8.10973 2.09233 7.64098ZM2.09233 4.66246C2.09233 4.20792 1.71236 3.81374 1.24006 3.81019C0.774858 3.81374 0.394886 4.20792 0.394886 4.66246C0.394886 5.13121 0.774858 5.51829 1.24006 5.51474C1.71236 5.51829 2.09233 5.13121 2.09233 4.66246ZM2.09233 1.68395C2.09233 1.2294 1.71236 0.835227 1.24006 0.831676C0.774858 0.835227 0.394886 1.2294 0.394886 1.68395C0.394886 2.1527 0.774858 2.53977 1.24006 2.53622C1.71236 2.53977 2.09233 2.1527 2.09233 1.68395Z" fill="#A4B0BE"/>
</svg>
