<svg width="20" height="20" viewBox="0 0 20 20" fill="none" xmlns="http://www.w3.org/2000/svg">
<path d="M19.3743 9.37472H11.4579C11.1129 9.37472 10.8329 9.09473 10.8329 8.74974C10.8329 8.40475 11.1129 8.12476 11.4579 8.12476H19.3743C19.7193 8.12476 19.9993 8.40475 19.9993 8.74974C19.9993 9.09473 19.7193 9.37472 19.3743 9.37472Z" fill="#D73D4F"/>
<path d="M16.2495 12.4996C16.0894 12.4996 15.9295 12.4387 15.8077 12.3164C15.5636 12.0721 15.5636 11.6763 15.8077 11.4321L18.4911 8.74896L15.8077 6.06563C15.5636 5.8215 15.5636 5.4257 15.8077 5.18157C16.052 4.93728 16.4478 4.93728 16.692 5.18157L19.8169 8.30647C20.061 8.5506 20.061 8.9464 19.8169 9.19054L16.692 12.3154C16.5694 12.4387 16.4095 12.4996 16.2495 12.4996Z" fill="#D73D4F"/>
<path d="M6.66651 19.9994C6.48814 19.9994 6.31893 19.9744 6.14987 19.9219L1.13491 18.2511C0.452562 18.0128 0 17.3769 0 16.6662V1.66667C0 0.747505 0.747505 0 1.66667 0C1.84488 0 2.0141 0.0250237 2.18331 0.0775123L7.19811 1.7483C7.88062 1.98663 8.33303 2.62245 8.33303 3.33318V18.3327C8.33303 19.2519 7.58568 19.9994 6.66651 19.9994ZM1.66667 1.24996C1.43749 1.24996 1.24996 1.43749 1.24996 1.66667V16.6662C1.24996 16.8437 1.36913 17.0086 1.53911 17.0678L6.53056 18.7311C6.56642 18.7427 6.61311 18.7494 6.66651 18.7494C6.89569 18.7494 7.08307 18.5619 7.08307 18.3327V3.33318C7.08307 3.15573 6.9639 2.99078 6.79392 2.93158L1.80247 1.26827C1.76661 1.25668 1.71992 1.24996 1.66667 1.24996Z" fill="#D73D4F"/>
<path d="M12.708 6.66651C12.363 6.66651 12.083 6.38652 12.083 6.04153V2.29165C12.083 1.71748 11.6156 1.24996 11.0414 1.24996H1.66673C1.32174 1.24996 1.04175 0.969972 1.04175 0.624981C1.04175 0.27999 1.32174 0 1.66673 0H11.0414C12.3056 0 13.3329 1.0275 13.3329 2.29165V6.04153C13.3329 6.38652 13.0529 6.66651 12.708 6.66651Z" fill="#D73D4F"/>
<path d="M11.0413 17.4995H7.70799C7.363 17.4995 7.08301 17.2195 7.08301 16.8745C7.08301 16.5295 7.363 16.2495 7.70799 16.2495H11.0413C11.6155 16.2495 12.0829 15.782 12.0829 15.2078V11.4579C12.0829 11.1129 12.3628 10.8329 12.7078 10.8329C13.0528 10.8329 13.3328 11.1129 13.3328 11.4579V15.2078C13.3328 16.472 12.3055 17.4995 11.0413 17.4995Z" fill="#D73D4F"/>
</svg>
