<svg width="26" height="26" viewBox="0 0 26 26" fill="none" xmlns="http://www.w3.org/2000/svg">
<path d="M16.0333 15.1668H15.5567C15.3774 15.1671 15.217 15.0552 15.1554 14.8868C15.1025 14.7482 15.0458 14.6125 14.9847 14.4782C14.9087 14.3148 14.9434 14.1214 15.0713 13.9946L15.4111 13.6544C15.9154 13.1457 15.9145 12.3251 15.4089 11.8175L14.1843 10.5929C13.6761 10.0877 12.8552 10.0877 12.347 10.5929L12.0072 10.9322C11.8802 11.0597 11.6871 11.0943 11.5236 11.0189C11.3893 10.9578 11.2537 10.901 11.1146 10.8456C10.9453 10.7844 10.8327 10.6234 10.8333 10.4434V9.96677C10.8333 9.24879 10.2513 8.66677 9.53333 8.66677H7.8C7.08202 8.66677 6.5 9.24879 6.5 9.96677V10.4434C6.50033 10.6227 6.38847 10.7831 6.22007 10.8447C6.0814 10.8976 5.94577 10.9543 5.81143 11.0154C5.64801 11.091 5.45485 11.0564 5.32783 10.9288L4.98767 10.589C4.47948 10.0841 3.65896 10.0841 3.15077 10.589L1.92617 11.8175C1.4209 12.3258 1.4209 13.1466 1.92617 13.6549L2.26547 13.9946C2.39341 14.1214 2.42808 14.3148 2.35213 14.4782C2.29103 14.6125 2.23427 14.7482 2.18097 14.8873C2.11895 15.0567 1.95704 15.1686 1.77667 15.1668H1.3C0.582021 15.1668 0 15.7488 0 16.4668V18.2001C0 18.9181 0.582021 19.5001 1.3 19.5001H1.77667C1.95596 19.4998 2.11635 19.6116 2.17793 19.78C2.2308 19.9187 2.28757 20.0543 2.34867 20.1887C2.42461 20.352 2.38994 20.5455 2.262 20.6723L1.92227 21.0124C1.41733 21.5206 1.41733 22.3411 1.92227 22.8493L3.14687 24.0739C3.65511 24.5792 4.47595 24.5792 4.9842 24.0739L5.32393 23.7346C5.45101 23.6072 5.64411 23.5726 5.80753 23.648C5.94187 23.7091 6.0775 23.7658 6.2166 23.8213C6.38674 23.8818 6.50033 24.0429 6.5 24.2234V24.7001C6.5 25.4181 7.08202 26.0001 7.8 26.0001H9.53333C10.2513 26.0001 10.8333 25.4181 10.8333 24.7001V24.2234C10.833 24.0441 10.9449 23.8838 11.1133 23.8222C11.2519 23.7693 11.3876 23.7125 11.5219 23.6514C11.6853 23.5759 11.8785 23.6105 12.0055 23.7381L12.3457 24.0778C12.8546 24.582 13.6749 24.581 14.1826 24.0757L15.4072 22.8511C15.9124 22.3428 15.9124 21.522 15.4072 21.0137L15.0679 20.674C14.9399 20.5472 14.9053 20.3538 14.9812 20.1904C15.0423 20.0561 15.0991 19.9204 15.1545 19.7813C15.2157 19.6121 15.3767 19.4995 15.5567 19.5001H16.0333C16.7513 19.5001 17.3333 18.9181 17.3333 18.2001V16.4668C17.3333 15.7488 16.7513 15.1668 16.0333 15.1668ZM16.4667 18.2001C16.4667 18.4394 16.2726 18.6334 16.0333 18.6334H15.5567C15.018 18.6354 14.5359 18.9684 14.3433 19.4715C14.2974 19.5928 14.2477 19.7123 14.1943 19.8299C13.9715 20.3217 14.0748 20.9 14.4543 21.2841L14.7931 21.6234C14.9625 21.7925 14.9626 22.067 14.7935 22.2363C14.7933 22.2364 14.7932 22.2365 14.7931 22.2366L13.5685 23.4612C13.3993 23.6304 13.125 23.6304 12.9558 23.4612L12.6161 23.1219C12.2321 22.7421 11.6536 22.6387 11.1618 22.8619C11.0444 22.9152 10.9248 22.965 10.8043 23.011C10.3016 23.2035 9.96883 23.6851 9.96667 24.2234V24.7001C9.96667 24.9394 9.77264 25.1334 9.53333 25.1334H7.8C7.56069 25.1334 7.36667 24.9394 7.36667 24.7001V24.2234C7.36466 23.6848 7.0317 23.2027 6.5286 23.0101C6.40727 22.9642 6.28783 22.9145 6.17023 22.861C5.6784 22.6384 5.10017 22.7418 4.71597 23.121L4.37667 23.4599C4.20756 23.6292 3.93315 23.6294 3.76382 23.4602C3.76372 23.4601 3.76361 23.46 3.7635 23.4599L2.5389 22.2366C2.36974 22.0674 2.36974 21.7931 2.5389 21.6239L2.8782 21.2841C3.25764 20.9 3.36099 20.3217 3.1382 19.8299C3.0849 19.7124 3.03507 19.5928 2.98913 19.4724C2.79706 18.9691 2.3153 18.6358 1.77667 18.6334H1.3C1.06069 18.6334 0.866667 18.4394 0.866667 18.2001V16.4668C0.866667 16.2275 1.06069 16.0334 1.3 16.0334H1.77667C2.31535 16.0314 2.79744 15.6985 2.99 15.1954C3.03593 15.074 3.0856 14.9546 3.13907 14.837C3.36185 14.3452 3.25845 13.7669 2.87907 13.3827L2.53847 13.0434C2.36914 12.8743 2.36898 12.5999 2.53814 12.4306C2.53825 12.4305 2.53836 12.4304 2.53847 12.4303L3.76307 11.2057C3.93228 11.0365 4.20658 11.0365 4.3758 11.2057L4.71553 11.545C5.09952 11.9247 5.67802 12.0281 6.1698 11.805C6.28723 11.7517 6.40683 11.7018 6.5273 11.6559C7.03073 11.464 7.36423 10.9822 7.36667 10.4434V9.96677C7.36667 9.72746 7.56069 9.53344 7.8 9.53344H9.53333C9.77264 9.53344 9.96667 9.72746 9.96667 9.96677V10.4434C9.96867 10.9821 10.3016 11.4642 10.8047 11.6568C10.9261 11.7027 11.0455 11.7524 11.1631 11.8058C11.6549 12.029 12.2334 11.9256 12.6174 11.5458L12.9567 11.207C13.1265 11.0389 13.4 11.0389 13.5698 11.207L14.7944 12.4316C14.9636 12.6008 14.9636 12.8751 14.7944 13.0443L14.4551 13.384C14.0758 13.7682 13.9723 14.3465 14.1951 14.8383C14.2484 14.9557 14.2983 15.0753 14.3442 15.1958C14.5367 15.6985 15.0184 16.0313 15.5567 16.0334H16.0333C16.2726 16.0334 16.4667 16.2275 16.4667 16.4668V18.2001Z" fill="#1233FE"/>
<path d="M12.5581 17.1599C12.5538 17.0559 12.5464 16.9523 12.5338 16.8492C12.52 16.7383 12.5035 16.6282 12.4805 16.5203C12.4654 16.4497 12.4454 16.3799 12.4264 16.3097C12.4021 16.2204 12.3748 16.1325 12.3445 16.0458C12.3232 15.9856 12.3011 15.9258 12.2786 15.8664C12.2228 15.7276 12.159 15.5921 12.0875 15.4608C12.0819 15.4508 12.0784 15.44 12.0728 15.43C11.9601 15.2294 11.8295 15.0392 11.6828 14.8619C11.6702 14.8463 11.6559 14.8316 11.6429 14.8164C11.5831 14.7458 11.5216 14.6773 11.457 14.6119C11.4232 14.5768 11.3877 14.5439 11.3521 14.5101C11.3088 14.4698 11.2655 14.4299 11.2221 14.3918C11.1695 14.3461 11.116 14.3019 11.0614 14.2592L10.9903 14.2063C10.3198 13.7041 9.50452 13.4328 8.66677 13.4332C8.62344 13.4332 8.58011 13.4397 8.53677 13.4415C8.44447 13.4441 8.35174 13.4493 8.25857 13.4588C8.20961 13.464 8.16021 13.4696 8.11124 13.4766C7.96997 13.4951 7.82979 13.5214 7.69134 13.555C5.60479 14.0942 4.35039 16.2228 4.88957 18.3094C5.2449 19.6843 6.31914 20.7577 7.69437 21.1119C7.70131 21.1119 7.70867 21.1141 7.71604 21.1158C7.8657 21.1531 8.01732 21.1821 8.17017 21.2025C8.27114 21.215 8.37211 21.2176 8.47351 21.2224C8.54111 21.2259 8.60351 21.2358 8.67414 21.2358C8.79764 21.2358 8.92591 21.2276 9.05677 21.2146C9.07064 21.2146 9.08451 21.2107 9.10011 21.209C9.20541 21.1973 9.31201 21.1817 9.42077 21.16C9.46411 21.1518 9.50441 21.1409 9.54601 21.1314C9.62227 21.1136 9.69811 21.095 9.77611 21.072C9.83677 21.0538 9.89571 21.0326 9.95507 21.0118C10.0144 20.991 10.076 20.9685 10.1375 20.9451C10.199 20.9217 10.2506 20.8948 10.3065 20.8688C10.3793 20.8354 10.4517 20.8025 10.5232 20.7635H10.5258C10.9302 20.547 11.3037 20.2772 11.6364 19.9614C11.7263 19.8775 11.8044 19.7819 11.8687 19.6771C12.2069 19.1349 12.4291 18.5285 12.5213 17.8961C12.5334 17.8125 12.5442 17.7289 12.5507 17.6435C12.5568 17.5651 12.5611 17.4871 12.5629 17.4091C12.5629 17.3844 12.5663 17.361 12.5663 17.3363C12.5668 17.2752 12.5607 17.2188 12.5581 17.1599ZM11.6945 17.4437C11.6945 17.4797 11.6914 17.5157 11.6893 17.5512C11.6815 17.6561 11.668 17.7609 11.6503 17.8662C11.4883 18.7672 10.9289 19.5472 10.1275 19.9896C10.0738 20.0177 10.0209 20.0442 9.96807 20.0684L9.93211 20.0858C9.68034 20.2001 9.4146 20.2805 9.14171 20.325C9.12264 20.328 9.10314 20.3315 9.08364 20.3341C9.02947 20.3419 8.97617 20.3484 8.92331 20.3531C8.85354 20.3592 8.78334 20.3627 8.71184 20.364C8.68151 20.364 8.65161 20.364 8.62127 20.364C8.51874 20.3628 8.41636 20.3564 8.31447 20.3449L8.26247 20.3388C8.14331 20.3232 8.02512 20.301 7.90844 20.2721C6.2855 19.8567 5.3066 18.2043 5.72195 16.5813C5.99641 15.5089 6.83329 14.6712 7.90541 14.3957V14.3952C8.15436 14.3324 8.41002 14.3004 8.66677 14.2999C8.79065 14.3006 8.91442 14.309 9.03727 14.325C9.07021 14.3289 9.10271 14.335 9.13521 14.3398C9.22881 14.3545 9.32154 14.3731 9.41297 14.3965C9.44287 14.4043 9.47277 14.4113 9.50224 14.4195C9.73267 14.486 9.95448 14.5794 10.1631 14.6977C10.1964 14.7172 10.2289 14.7376 10.2619 14.7579C10.3303 14.8013 10.3966 14.8446 10.4621 14.894C10.4972 14.9196 10.5327 14.9447 10.5665 14.972C10.6515 15.0399 10.733 15.1122 10.8105 15.1887C10.8412 15.2199 10.8694 15.2541 10.8993 15.2866C10.9491 15.3408 10.9977 15.3962 11.044 15.4547C11.0761 15.495 11.1069 15.5366 11.1372 15.5787C11.1805 15.6411 11.2239 15.7061 11.2629 15.7719C11.2845 15.8079 11.3062 15.843 11.3283 15.8798C11.3842 15.9827 11.434 16.0887 11.4774 16.1975C11.4947 16.2408 11.5094 16.2841 11.525 16.3275C11.5532 16.4072 11.5775 16.4878 11.5987 16.5693C11.6095 16.6126 11.6217 16.6512 11.6308 16.6932C11.6561 16.8103 11.6744 16.9288 11.6858 17.0481C11.6884 17.0797 11.6884 17.1118 11.6906 17.1434C11.6966 17.2431 11.6984 17.3432 11.6945 17.4437Z" fill="#1233FE"/>
<path d="M24.7002 9.1H23.3373C23.1556 9.10184 22.993 8.98739 22.9335 8.81573C22.7991 8.41322 22.6365 8.02062 22.4468 7.64097C22.3663 7.477 22.3999 7.27989 22.53 7.15173L23.4964 6.1841C24.0036 5.6765 24.0036 4.85393 23.4964 4.34633L21.6538 2.50683C21.1462 1.99962 20.3237 1.99962 19.8161 2.50683L18.8502 3.4723C18.7222 3.60241 18.5253 3.6361 18.3614 3.55593C17.9816 3.36532 17.5889 3.20185 17.1862 3.0667C17.0138 3.00771 16.8985 2.845 16.9002 2.66283V1.3C16.9002 0.582021 16.3181 0 15.6002 0H13.0002C12.2822 0 11.7002 0.582021 11.7002 1.3V2.66283C11.702 2.84456 11.5876 3.00712 11.4159 3.0667C11.0133 3.20179 10.6207 3.36516 10.2411 3.5555C10.0772 3.63626 9.87994 3.60273 9.75189 3.4723L8.78426 2.50597C8.27606 2.00021 7.45468 2.00021 6.94649 2.50597L5.10742 4.34503C4.59993 4.85268 4.59993 5.67558 5.10742 6.18323L6.52832 7.60673C6.70019 7.77324 6.97455 7.76891 7.14106 7.59698C7.3035 7.42928 7.30388 7.163 7.14192 6.99487L5.72016 5.5718C5.55099 5.40258 5.55099 5.12828 5.72016 4.95907L7.55922 3.12C7.72844 2.95084 8.00274 2.95084 8.17196 3.12L9.14002 4.08633C9.5317 4.48034 10.1319 4.57882 10.629 4.33073C10.9722 4.15886 11.3271 4.01131 11.6911 3.88917C12.2164 3.71134 12.5691 3.21745 12.5668 2.66283V1.3C12.5668 1.06069 12.7608 0.866667 13.0002 0.866667H15.6002C15.8395 0.866667 16.0335 1.06069 16.0335 1.3V2.66283C16.0313 3.21734 16.384 3.71107 16.9093 3.88873C17.2734 4.01093 17.6284 4.15859 17.9718 4.33073C18.469 4.57752 19.0683 4.47893 19.4603 4.0859L20.4284 3.12C20.5976 2.95084 20.8719 2.95084 21.0411 3.12L22.8802 4.9595C23.049 5.12866 23.049 5.40264 22.8802 5.5718L21.9138 6.53987C21.5202 6.93176 21.4218 7.53166 21.6694 8.0288C21.8413 8.37205 21.9888 8.72695 22.111 9.0909C22.2887 9.61632 22.7827 9.96905 23.3373 9.96667H24.7002C24.9395 9.96667 25.1335 10.1607 25.1335 10.4V13C25.1335 13.2393 24.9395 13.4333 24.7002 13.4333H23.3373C22.7828 13.4311 22.2891 13.7838 22.1114 14.3091C21.9893 14.6732 21.8416 15.0283 21.6694 15.3716C21.4222 15.8688 21.5208 16.4683 21.9143 16.8601L22.8806 17.8282C23.0498 17.9974 23.0498 18.2717 22.8806 18.4409L21.0407 20.28C20.8715 20.4489 20.5975 20.4489 20.4284 20.28L19.0044 18.8591C18.8379 18.6872 18.5636 18.6828 18.3917 18.8493C18.2198 19.0159 18.2154 19.2902 18.3819 19.4621C18.3854 19.4657 18.389 19.4692 18.3926 19.4727L19.8161 20.8936C20.3237 21.4008 21.1462 21.4008 21.6538 20.8936L23.4929 19.055C24.0004 18.5473 24.0004 17.7244 23.4929 17.2168L22.5279 16.25C22.3979 16.122 22.3642 15.9252 22.4442 15.7612C22.6348 15.3815 22.7983 14.9888 22.9335 14.586C22.9924 14.4136 23.1552 14.2984 23.3373 14.3H24.7002C25.4181 14.3 26.0002 13.718 26.0002 13V10.4C26.0002 9.68202 25.4181 9.1 24.7002 9.1Z" fill="#1233FE"/>
<path d="M18.2833 7.71678C16.0821 5.52016 12.5182 5.52016 10.3169 7.71678C10.1507 7.88892 10.1555 8.16327 10.3276 8.32951C10.4955 8.49169 10.7618 8.49169 10.9297 8.32951C12.7786 6.45556 15.7967 6.43536 17.6706 8.28434C19.5446 10.1333 19.5648 13.1513 17.7158 15.0253C17.7008 15.0404 17.6858 15.0555 17.6706 15.0704C17.4985 15.2367 17.4937 15.511 17.66 15.6832C17.8263 15.8553 18.1006 15.8601 18.2727 15.6938C18.2763 15.6903 18.2799 15.6868 18.2833 15.6832C20.48 13.482 20.48 9.918 18.2833 7.71678Z" fill="#1233FE"/>
</svg>
