<svg width="20" height="26" viewBox="0 0 20 26" fill="none" xmlns="http://www.w3.org/2000/svg">
<path d="M15.324 12.2287C14.9818 12.6597 14.5972 13.0576 14.1556 13.4167C16.6764 14.8627 18.3783 17.5812 18.3783 20.6898C18.3783 22.3694 14.6981 23.6852 9.99994 23.6852C5.30183 23.6852 1.6216 22.3694 1.6216 20.6898C1.6216 17.5812 3.32344 14.8627 5.84427 13.4167C5.4027 13.0576 5.01819 12.6598 4.67588 12.2287C1.86864 14.0015 0 17.1313 0 20.6898C0 21.7677 0.590238 23.27 3.4023 24.3053C5.15638 24.9512 7.49947 25.3068 10 25.3068C12.5005 25.3068 14.8436 24.9512 16.5977 24.3053C19.4097 23.27 20 21.7677 20 20.6898C19.9999 17.1313 18.1312 14.0015 15.324 12.2287Z" fill="#FFB965"/>
<path d="M9.99988 13.2973C13.1514 13.2973 15.5783 10.2509 15.5783 6.64866C15.5783 3.04474 13.1502 0 9.99988 0C6.84834 0 4.42151 3.04635 4.42151 6.64861C4.42151 10.2525 6.84961 13.2973 9.99988 13.2973ZM9.99988 1.6216C12.1816 1.6216 13.9566 3.8767 13.9566 6.64861C13.9566 9.42052 12.1816 11.6756 9.99988 11.6756C7.81815 11.6756 6.04311 9.42052 6.04311 6.64861C6.04311 3.8767 7.81815 1.6216 9.99988 1.6216Z" fill="#FFB965"/>
</svg>
