<svg width="25" height="27" viewBox="0 0 25 27" fill="none" xmlns="http://www.w3.org/2000/svg">
<path d="M3.20599 19.2094C3.24979 19.2525 3.30251 19.2859 3.36054 19.3068V25.7891C3.36054 26.0295 3.55548 26.2245 3.79592 26.2245H23.8231C24.0636 26.2245 24.2585 26.0295 24.2585 25.7891V15.3401C24.2585 15.0997 24.0636 14.9048 23.8231 14.9048H21.6429C22.0842 14.3291 22.517 13.6344 22.517 13.1633C22.5166 12.4392 22.068 11.791 21.3907 11.5353C20.7132 11.2795 19.9483 11.4696 19.4694 12.0125C18.9904 11.4696 18.2255 11.2795 17.548 11.5353C16.8707 11.791 16.4222 12.4392 16.4218 13.1633C16.4218 13.6344 16.8546 14.3291 17.2959 14.9048H8.12606L9.97831 13.0527L13.0568 9.97406L19.2143 3.81654C19.3841 3.64668 19.3841 3.37096 19.2143 3.2011L16.1358 0.122449C15.963 -0.0408163 15.6928 -0.0408163 15.5202 0.122449L11.4632 4.17921C10.0415 3.06611 8.34694 2.37032 7.51573 3.2011C6.97024 3.7466 7.08525 4.66645 7.54315 5.63605L5.64158 7.53826C4.67156 7.08057 3.75149 6.96535 3.20599 7.51127C2.37564 8.34098 3.07143 10.0364 4.18474 11.4579L0.127551 15.5142C-0.042517 15.6843 -0.042517 15.9598 0.127551 16.1299L3.20599 19.2094ZM17.2925 13.1633C17.2925 12.6824 17.6824 12.2925 18.1633 12.2925C18.6441 12.2925 19.034 12.6824 19.034 13.1633V13.2808C19.034 13.5213 19.229 13.7162 19.4694 13.7162C19.7098 13.7162 19.9048 13.5213 19.9048 13.2808V13.1633C19.9048 12.6824 20.2946 12.2925 20.7755 12.2925C21.2564 12.2925 21.6463 12.6824 21.6463 13.1633C21.3965 13.818 21.0098 14.4118 20.5117 14.9048H18.4271C17.9292 14.4118 17.5423 13.818 17.2925 13.1633ZM15.9864 15.7755H23.3878V25.3537H15.9864V15.7755ZM12.5034 15.7755H15.1156V25.3537H12.5034V15.7755ZM11.6327 15.7755V25.3537H4.23129V18.8231H4.20727L7.27891 15.7519V15.7755H11.6327ZM9.67092 12.1288L7.20791 9.66581L9.67092 7.20302L12.1337 9.66581L9.67092 12.1288ZM15.828 1.04592L18.2908 3.50893L12.7494 9.05017L10.2866 6.58907L15.828 1.04592ZM8.13138 3.81654C8.23554 3.73278 8.3682 3.69281 8.50149 3.70472C8.98682 3.70472 9.83418 4.02211 10.8433 4.79889L9.36309 6.27912L9.11394 6.52848C8.0625 5.16369 7.85268 4.09524 8.13138 3.81654ZM7.98427 6.42878C8.14009 6.67347 8.3108 6.9156 8.49447 7.1503L7.15306 8.49171C6.91837 8.30803 6.67644 8.13733 6.43218 7.98108L7.98427 6.42878ZM3.82164 8.12691C3.92559 8.04315 4.05782 8.00297 4.1909 8.01488C4.67666 8.01488 5.52445 8.33184 6.53359 9.10905L6.28444 9.35799L4.80421 10.8384C3.75234 9.47342 3.54294 8.40497 3.82164 8.12691ZM6.59226 10.2815L9.05527 12.7445L3.51382 18.2859L1.05315 15.8229L6.59226 10.2815Z" fill="#12C5FE"/>
</svg>
