<svg width="20" height="21" viewBox="0 0 20 21" fill="none" xmlns="http://www.w3.org/2000/svg">
<path d="M10.0002 0C5.83974 0 2.45532 3.38446 2.45532 7.54485V8.36326H3.98987V7.54485C3.98987 4.23073 6.68609 1.53455 10.0002 1.53455C13.3142 1.53455 16.0105 4.23077 16.0105 7.54485V8.36326H17.545V7.54485C17.545 3.38446 14.1604 0 10.0002 0Z" fill="#A4B0BE"/>
<path d="M4.29672 7.59601H2.40412C1.07854 7.59601 0 8.67455 0 10.0001V13.504C0 14.8296 1.07854 15.9081 2.40412 15.9081H4.29672C4.72052 15.9081 5.06398 15.5646 5.06398 15.1409V8.3633C5.06402 7.93951 4.72052 7.59601 4.29672 7.59601ZM3.52947 14.3736H2.40412C1.91663 14.3736 1.53455 13.9918 1.53455 13.504V10.0002C1.53455 9.51268 1.91667 9.1306 2.40412 9.1306H3.52947V14.3736Z" fill="#A4B0BE"/>
<path d="M17.5959 7.59601H15.7035C15.2797 7.59601 14.9363 7.93951 14.9363 8.36326V15.1409C14.9363 15.5647 15.2798 15.9081 15.7035 15.9081H17.5961C18.9217 15.9081 20.0003 14.8296 20 13.504V10.0001C20 8.67455 18.9218 7.59601 17.5959 7.59601ZM18.4655 13.504C18.4655 13.9918 18.0836 14.3736 17.5959 14.3736H16.4708V9.13056H17.5959C18.0836 9.13056 18.4655 9.51268 18.4655 10.0001V13.504Z" fill="#A4B0BE"/>
<path d="M16.5478 15.1409C16.5478 16.2128 15.6757 17.0847 14.6038 17.0847H12.5577V18.6192H14.6038C16.5217 18.6192 18.0821 17.0588 18.0824 15.1409H16.5478Z" fill="#A4B0BE"/>
<path d="M13.2991 17.8345C13.2897 16.3056 12.0426 15.0644 10.5114 15.0644C8.97451 15.0644 7.72388 16.3148 7.72388 17.8519C7.72388 19.3891 8.986 20.6397 10.5372 20.6397C11.3032 20.6397 12.0411 20.3274 12.5613 19.7826C13.0661 19.2545 13.3275 18.5634 13.2991 17.8345ZM11.4523 18.722C11.2198 18.9652 10.8863 19.1049 10.5374 19.1049C9.84432 19.1049 9.25867 18.531 9.25867 17.8517C9.25867 17.1609 9.82058 16.5987 10.5116 16.5987C11.2027 16.5987 11.7649 17.1611 11.7651 17.8514C11.7651 17.8632 11.7653 17.8746 11.7659 17.8864C11.7799 18.1987 11.6687 18.4956 11.4523 18.722Z" fill="#A4B0BE"/>
</svg>
