<svg width="26" height="23" viewBox="0 0 26 23" fill="none" xmlns="http://www.w3.org/2000/svg">
<path fill-rule="evenodd" clip-rule="evenodd" d="M0 3.05595C0 1.5957 1.16202 0.391357 2.62055 0.391357H21.1186C22.5772 0.391357 23.7391 1.5957 23.7391 3.05595V8.86962C23.7391 9.18173 23.486 9.43484 23.1739 9.43484C22.8618 9.43484 22.6087 9.18173 22.6087 8.86962V3.05595C22.6087 2.19731 21.9303 1.52179 21.1186 1.52179H2.62055C1.80882 1.52179 1.13043 2.19731 1.13043 3.05595V13.5529C1.13043 14.4115 1.80882 15.087 2.62055 15.087H10.7391C11.0512 15.087 11.3043 15.3401 11.3043 15.6522C11.3043 15.9643 11.0512 16.2174 10.7391 16.2174H2.62055C1.16202 16.2174 0 15.0131 0 13.5529V3.05595Z" fill="#54CD61"/>
<path fill-rule="evenodd" clip-rule="evenodd" d="M0 4.34769C0 4.03553 0.253057 3.78247 0.565217 3.78247H23.1739C23.486 3.78247 23.7391 4.03553 23.7391 4.34769C23.7391 4.65985 23.486 4.91291 23.1739 4.91291H0.565217C0.253057 4.91291 0 4.65985 0 4.34769Z" fill="#54CD61"/>
<path fill-rule="evenodd" clip-rule="evenodd" d="M2.26074 10C2.26074 9.68792 2.5138 9.43481 2.82596 9.43481H5.08683C5.39899 9.43481 5.65205 9.68792 5.65205 10C5.65205 10.3121 5.39899 10.5652 5.08683 10.5652H2.82596C2.5138 10.5652 2.26074 10.3121 2.26074 10Z" fill="#54CD61"/>
<path fill-rule="evenodd" clip-rule="evenodd" d="M2.26074 12.826C2.26074 12.5138 2.5138 12.2607 2.82596 12.2607H7.3477C7.65986 12.2607 7.91292 12.5138 7.91292 12.826C7.91292 13.1381 7.65986 13.3912 7.3477 13.3912H2.82596C2.5138 13.3912 2.26074 13.1381 2.26074 12.826Z" fill="#54CD61"/>
<path fill-rule="evenodd" clip-rule="evenodd" d="M19.7826 11.6959C16.9731 11.6959 14.6956 13.9734 14.6956 16.7828C14.6956 19.5923 16.9731 21.8698 19.7826 21.8698C22.592 21.8698 24.8695 19.5923 24.8695 16.7828C24.8695 13.9734 22.592 11.6959 19.7826 11.6959ZM13.5652 16.7828C13.5652 13.349 16.3488 10.5654 19.7826 10.5654C23.2164 10.5654 26 13.349 26 16.7828C26 20.2166 23.2164 23.0002 19.7826 23.0002C16.3488 23.0002 13.5652 20.2166 13.5652 16.7828Z" fill="#54CD61"/>
<path fill-rule="evenodd" clip-rule="evenodd" d="M21.6437 15.8176C21.8645 15.5969 22.2224 15.5969 22.4432 15.8176C22.6638 16.0384 22.6638 16.3963 22.4432 16.617L20.1823 18.8779C19.9615 19.0986 19.6037 19.0986 19.3829 18.8779L17.6872 17.1823C17.4666 16.9615 17.4666 16.6036 17.6872 16.3828C17.908 16.1622 18.2659 16.1622 18.4867 16.3828L19.7826 17.6789L21.6437 15.8176Z" fill="#54CD61"/>
</svg>
